<svg width="32" height="32" viewBox="0 0 32 32" fill="none" xmlns="http://www.w3.org/2000/svg">
<rect width="32" height="32" fill="#BDAC8D"/>
<path d="M14.1812 19.6378C14.2182 19.6378 14.2548 19.6305 14.2889 19.6164C14.323 19.6023 14.354 19.5816 14.3802 19.5555L17.8469 16.0886C17.8996 16.0359 17.9292 15.9643 17.9292 15.8897C17.9292 15.8152 17.8996 15.7436 17.8469 15.6909L14.3802 12.224C14.3541 12.1979 14.3231 12.1772 14.2889 12.163C14.2548 12.1489 14.2182 12.1416 14.1813 12.1416C14.1444 12.1416 14.1078 12.1489 14.0737 12.163C14.0395 12.1771 14.0085 12.1978 13.9824 12.2239C13.9563 12.2501 13.9355 12.2811 13.9214 12.3152C13.9072 12.3493 13.9 12.3859 13.9 12.4228C13.8999 12.4597 13.9072 12.4963 13.9213 12.5305C13.9355 12.5646 13.9562 12.5956 13.9823 12.6217L17.2502 15.8897L13.9823 19.1576C13.9429 19.1969 13.9161 19.2471 13.9053 19.3016C13.8944 19.3562 13.9 19.4128 13.9213 19.4642C13.9426 19.5156 13.9786 19.5595 14.0249 19.5904C14.0712 19.6213 14.1256 19.6378 14.1812 19.6378Z" fill="white"/>
</svg>
