<svg width="36" height="36" viewBox="0 0 36 36" fill="none" xmlns="http://www.w3.org/2000/svg">
<rect width="36" height="36" fill="#F8F8F8"/>
<path d="M20.3384 22.676C20.2909 22.676 20.2439 22.6667 20.2 22.6486C20.1561 22.6304 20.1162 22.6038 20.0826 22.5702L15.6255 18.1128C15.5577 18.045 15.5196 17.953 15.5196 17.8571C15.5196 17.7612 15.5577 17.6693 15.6255 17.6015L20.0826 13.1441C20.1162 13.1105 20.1561 13.0838 20.1999 13.0656C20.2438 13.0475 20.2908 13.0381 20.3383 13.0381C20.3858 13.0381 20.4329 13.0474 20.4767 13.0656C20.5206 13.0837 20.5605 13.1104 20.5941 13.1439C20.6277 13.1775 20.6543 13.2174 20.6725 13.2613C20.6907 13.3051 20.7 13.3521 20.7001 13.3996C20.7001 13.4471 20.6907 13.4942 20.6726 13.538C20.6544 13.5819 20.6278 13.6218 20.5942 13.6554L16.3926 17.857L20.5942 22.0586C20.6448 22.1092 20.6793 22.1737 20.6932 22.2438C20.7072 22.314 20.7 22.3867 20.6727 22.4528C20.6453 22.5189 20.5989 22.5754 20.5394 22.6151C20.4799 22.6549 20.41 22.6761 20.3384 22.676Z" fill="#111111"/>
</svg>
