<svg width="29" height="12" viewBox="0 0 29 12" fill="none" xmlns="http://www.w3.org/2000/svg">
<path d="M4.13408 11.2563C3.16728 11.2563 2.34453 10.9951 1.66582 10.4727C0.987109 9.94531 0.569629 9.24707 0.413379 8.37793H2.2957C2.41777 8.77832 2.64238 9.0957 2.96953 9.33008C3.30156 9.55957 3.69463 9.67432 4.14873 9.67432C4.92021 9.67432 5.52324 9.33496 5.95781 8.65625C6.39238 7.97266 6.60967 7.02539 6.60967 5.81445H6.54375H6.50713H6.48516C6.23613 6.31738 5.87236 6.70801 5.39385 6.98633C4.91533 7.25977 4.36602 7.39648 3.7459 7.39648C2.74004 7.39648 1.90752 7.06445 1.24834 6.40039C0.594043 5.73633 0.266894 4.89648 0.266894 3.88086C0.266894 2.79688 0.633105 1.9082 1.36553 1.21484C2.10283 0.516602 3.04521 0.16748 4.19268 0.16748C4.96416 0.16748 5.64775 0.345703 6.24346 0.702148C6.83916 1.05859 7.31523 1.57617 7.67168 2.25488C8.16973 3.13867 8.41875 4.25195 8.41875 5.59473C8.41875 7.37207 8.04033 8.76123 7.2835 9.76221C6.52666 10.7583 5.47686 11.2563 4.13408 11.2563ZM2.70586 5.31641C3.09648 5.70215 3.59453 5.89502 4.2 5.89502C4.80547 5.89502 5.30596 5.70215 5.70146 5.31641C6.09697 4.93066 6.29473 4.44238 6.29473 3.85156C6.29473 3.25586 6.09453 2.75537 5.69414 2.3501C5.29375 1.94482 4.79814 1.74219 4.20732 1.74219C3.6165 1.74219 3.1209 1.94238 2.72051 2.34277C2.32012 2.73828 2.11992 3.23145 2.11992 3.82227C2.11992 4.42773 2.31523 4.92578 2.70586 5.31641ZM11.4366 9.87939C11.0948 9.87939 10.8141 9.76953 10.5943 9.5498C10.3746 9.33008 10.2647 9.0542 10.2647 8.72217C10.2647 8.38525 10.3746 8.10938 10.5943 7.89453C10.8141 7.6748 11.0948 7.56494 11.4366 7.56494C11.7833 7.56494 12.0641 7.6748 12.2789 7.89453C12.4986 8.10938 12.6085 8.38525 12.6085 8.72217C12.6085 9.0542 12.4986 9.33008 12.2789 9.5498C12.0641 9.76953 11.7833 9.87939 11.4366 9.87939ZM11.4366 4.38623C11.0948 4.38623 10.8141 4.27881 10.5943 4.06396C10.3746 3.84424 10.2647 3.56836 10.2647 3.23633C10.2647 2.89941 10.3746 2.62354 10.5943 2.40869C10.8141 2.18896 11.0948 2.0791 11.4366 2.0791C11.7833 2.0791 12.0641 2.18896 12.2789 2.40869C12.4986 2.62354 12.6085 2.89941 12.6085 3.23633C12.6085 3.56836 12.4986 3.84424 12.2789 4.06396C12.0641 4.27881 11.7833 4.38623 11.4366 4.38623ZM19.6107 11V9.02979H14.4472V7.34521C15.3065 5.76318 16.7421 3.4585 18.7538 0.431152H21.4198V7.43311H22.848V9.02979H21.4198V11H19.6107ZM16.1977 7.36719V7.47705H19.64V1.96924H19.5375C18.3949 3.65869 17.2816 5.45801 16.1977 7.36719ZM26.8767 11V2.33545H26.7521L24.1228 4.18115V2.36475L26.884 0.431152H28.7663V11H26.8767Z" fill="black"/>
</svg>
